<?xml version="1.0" encoding="UTF-8" standalone="no"?>
<svg xmlns:rdf="http://www.w3.org/1999/02/22-rdf-syntax-ns#" xmlns="http://www.w3.org/2000/svg" version="1.1" xmlns:cc="http://creativecommons.org/ns#" xmlns:dc="http://purl.org/dc/elements/1.1/" width="316" height="316" 
viewBox="0 0 158 158">
 <g transform="matrix(.49367 0 0 .49367 .86182 .85091)">
  <path fill="#d09b2c" d="m316 158c0-87.046-70.95-158-158-158-87.199-1.3e-7 -158 70.954-158 158-1.3e-7 87.05 70.954 158 158 158 87.199 0 158-70.801 158-158z"/>
  <path fill="#fff" d="m149.01 311.6c-31.95-1.73-63.262-13.97-88.329-34.51-8.107-6.64-19.485-18.44-25.452-26.4-16.093-21.48-25.538-44.26-29.798-71.92-1.4018-9.09-1.4013-32.17 0.0003-41.6 2.7036-18.18 7.3527-32.86 15.469-48.842 22.934-45.164 66.325-75.892 117.23-83.012 10.54-1.4754 31.13-1.3294 41.71 0.2955 10.256 1.5765 22.089 4.5587 30.815 7.7654 7.8746 2.8943 22.292 9.9093 28.52 13.877 39.043 24.874 64.236 63.344 71.246 108.81 1.4328 9.2906 1.4839 33.971 0.0892 43.129-7.4194 48.719-35.379 89.47-77.78 113.36-18.537 10.446-42.764 17.671-63.064 18.808-11.442 0.64055-13.014 0.65912-20.658 0.24399z"/>
  <path fill="#d09b2c" d="m176.37 277.9c26.043-4.12 48.727-15.684 67.313-34.314 10.632-10.657 17.024-19.581 23.438-32.714 23.46-48.06 12.68-105.05-26.83-141.84-16.9-15.732-37.54-26.032-61.05-30.465-7.91-1.491-25.96-2.058-34.47-1.084-27.54 3.154-52.614 15.273-72.256 34.915-19.868 19.869-31.805 44.764-34.899 72.774-0.88587 8.0221-0.43216 25.288 0.85338 32.474 3.129 17.492 9.1496 32.834 18.375 46.825 4.7618 7.2217 8.6321 11.932 15.572 18.951 9.8766 9.9905 19.25 16.735 32.294 23.236 12.456 6.2075 26.797 10.434 40.701 11.997 6.5512 0.73606 24.244 0.30128 30.958-0.76071z"/>
  <path fill="#fff" d="m136.53 219.74c-11.417-11.241-22.387-22.474-24.377-24.961-4.2516-5.3139-8.5884-13.707-10.727-20.761l-1.5234-5.0247-0.17916-35.592-0.17916-35.592 1.3376-0.60947c1.1144-0.50776 1.8876-0.33241 4.6329 1.0508 14.083 7.0957 32.086 7.2672 46.848 0.44638 2.3866-1.1026 4.833-2.0048 5.4368-2.0048 0.60376 0 2.6411 0.73158 4.5274 1.6257 14.907 7.0665 32.222 7.1992 47.023 0.36052 3.8426-1.7754 4.5699-1.9443 5.9353-1.3788l1.5561 0.64458-0.0138 30.221c-0.008 16.621-0.2573 32.719-0.55419 35.771-0.9614 9.888-3.8265 18.077-9.256 26.457-2.5571 3.9463-7.2726 8.9876-25.548 27.314-12.327 12.36-22.81 22.472-23.297 22.472-0.48657-0.001-10.226-9.1985-21.642-20.439z"/>
  <path fill="#d09b2c" d="m212.86 158.61c0 14.559-5.6702 28.351-16.091 38.772l-38.925 38.772-38.925-38.772c-10.421-10.268-16.091-24.06-16.091-38.772v-57.468c8.1222 4.1377 17.317 6.2832 26.512 6.2832 9.9612 0 19.769-2.452 28.504-7.2027 8.7352 4.7507 18.543 7.2027 28.504 7.2027 9.195 0 18.39-2.1455 26.665-6.2832v57.468z"/>
  <path fill="#fff" d="m161.01 48.686c-6.3274 0-6.6992 0.06066-6.6992 1.1152 0 0.95119 0.37159 1.1172 2.5117 1.1172h2.5137v6.1406 6.1426h1.3945 1.3965v-5.8633-5.8613h2.791c2.6055 0.000001 2.791-0.09377 2.791-1.3965v-1.3945h-6.6992zm-14.414 0.55664c-1.4521-0.000001-1.4667 0.35424-0.3125 7.8164l0.30273 1.9551-2.1367-2.2402c-1.175-1.2317-2.9662-3.2035-3.9805-4.3809-1.439-1.6703-2.1244-2.0685-3.1211-1.8184l-1.2773 0.32031 0.74023 5.1758c0.40682 2.8468 0.88034 5.9923 1.0527 6.9902 0.25277 1.4632 0.57601 1.8145 1.6699 1.8145 1.1734 0 1.3204-0.20714 1.0859-1.5352-0.82514-4.6738-1.1591-7.9551-0.81055-7.9551 0.21761 0 1.9772 1.8887 3.9102 4.1973 2.8789 3.4383 3.7255 4.1317 4.6836 3.8379 0.64326-0.19725 1.2274-0.40595 1.2988-0.46484 0.0714-0.05885-0.29351-3.1689-0.81055-6.9102-0.90822-6.5715-0.98553-6.8027-2.2949-6.8027zm28.41 0.7168c-0.2173-0.01278-0.38939 0.01829-0.4668 0.0957-0.32106 0.3209-2.3377 11.777-2.3457 13.322-0.004 0.73261 0.34173 0.96656 1.2383 0.83789 1.1136-0.15984 1.3416-0.76074 2.1973-5.7617 1.2148-7.1002 1.2253-7.8992 0.10743-8.3281-0.25229-0.09681-0.51318-0.15323-0.73047-0.16602zm-48.162 3.1914c-0.81008 0-9.0197 2.9019-9.5703 3.3828-0.26114 0.22804 0.4859 3.3287 1.6582 6.8906 1.1723 3.5618 2.3751 6.4766 2.6738 6.4766 0.29868 0 2.632-0.68076 5.1836-1.5117 3.2938-1.0727 4.6387-1.773 4.6387-2.418 0-1.5648-0.54056-1.593-4.5352-0.23438l-3.8867 1.3223-0.53516-1.4082c-0.82188-2.1618-0.72351-2.2984 2.1816-3.043 2.209-0.56616 2.6663-0.88883 2.4473-1.7266-0.31202-1.1926-0.74798-1.2429-3.7051-0.42188-1.7116 0.47524-2.27 0.44516-2.6426-0.14258-1.1773-1.8571-0.51093-2.6277 3.3438-3.8691 3.1698-1.021 3.7854-1.4133 3.5625-2.2656-0.14825-0.56693-0.51476-1.0312-0.81445-1.0312zm63.363 0.04492c-1.053-0.03403-2.8232 2.019-5.959 5.9492-4.5117 5.6548-4.7128 6.0201-3.5527 6.4492 0.96709 0.35775 1.4433 0.16183 2.2285-0.91602 0.99458-1.3652 1.008-1.3673 3.7812-0.48047 2.1438 0.68552 2.787 1.1558 2.793 2.041 0.0104 1.3969 0.55291 2.2728 1.668 2.6973 0.45954 0.17487 0.92026 0.33714 1.0215 0.36133 0.10148 0.02421 0.003-3.4106-0.2168-7.6328-0.29798-5.7112-0.57025-8.4302-1.7637-8.4688zm-1.45 4.804c0.50391-0.01944 0.72461 0.78588 0.72461 2.4414 0 2.3633-0.0536 2.398-2.3672 1.5527l-1.5293-0.55859 1.4512-1.9043c0.76501-1.003 1.3288-1.5161 1.7207-1.5312zm-81.371 3.3418c-0.22106-0.0011-0.46481 0.13962-0.80274 0.38672-0.95888 0.70112-0.83003 1.1017 2.2363 6.9355 2.8517 5.4257 3.3816 6.1257 4.2734 5.6484 0.55984-0.29962 1.0176-0.66687 1.0176-0.81641 0-0.3963-4.2824-8.8517-5.4844-10.828-0.56702-0.93233-0.87181-1.3243-1.2402-1.3262zm-9.5723 5.7676c-2.0047 0-4.2107 1.1091-5.9883 3.0117-0.98049 1.0496-1.4088 2.2479-1.5664 4.3809-0.26206 3.546 1.1399 6.2112 3.9023 7.4121 4.6395 2.0171 9.9077-0.39946 11.287-5.1758 0.58725-2.0336-1.9753-1.6888-3.1797 0.42774-0.96225 1.6911-2.9179 2.7832-4.9863 2.7832-1.8678 0-4.3867-2.9781-4.3867-5.1855 0-2.4103 2.258-4.8633 4.4766-4.8633 1.1926 0 1.5933-0.31116 1.8008-1.3965 0.23524-1.2303 0.07314-1.3945-1.3594-1.3945zm121.78 0.61133c-0.0801-0.02486-0.1336-0.02548-0.15625 0.002-3.4135 4.1261-8.2238 11.28-7.8398 11.66 0.27799 0.27508 2.2587 1.8664 4.4024 3.5352h0.002c3.4711 2.7021 3.9732 2.9349 4.5938 2.127 0.58962-0.76778 0.4217-1.1234-1.0879-2.3047-0.98094-0.76778-2.4768-2.0233-3.3242-2.791l-1.541-1.3945 1.0957-1.3105 1.0976-1.3086 2.373 1.7441c2.1755 1.5998 2.4332 1.6687 3.0664 0.80273 0.59402-0.81237 0.37793-1.1761-1.5312-2.5801-2.5139-1.8486-2.5466-1.9378-1.3457-3.6523l0.875-1.25 3.2774 2.5762c3.1043 2.4389 4.4648 2.7726 4.4648 1.0957 0-0.68603-7.2207-6.5783-8.4219-6.9512zm14.33 11.963c-0.20872-0.0078-0.38662 0.07802-0.57031 0.23047-0.76074 0.63139-0.66786 0.94879 0.80078 2.7305l1.6621 2.0176-4.2324 3.9238c-3.2068 2.9738-4.1373 4.162-3.8438 4.9023 0.21308 0.53735 0.56459 0.97656 0.78125 0.97656 0.21669 0 2.3413-1.7941 4.7227-3.9883l4.3301-3.9902 1.7129 2.0781c1.5154 1.8384 1.8098 1.9831 2.543 1.25 1.0035-1.0035 0.82884-1.2897-4.1582-6.7969-2.2126-2.4435-3.1219-3.3107-3.748-3.334zm-152.56 1.158c-1.5543 0-2.3685 0.40399-3.6113 1.7949-1.8985 2.1246-2.0316 3.8765-0.44726 5.8906 1.3238 1.6828 3.8139 1.9406 6.1016 0.63281 1.6274-0.93024 3.6955-1.0725 4.1797-0.28906 0.61116 0.98892-0.86022 2.8353-2.5234 3.168-0.8976 0.17953-1.9166 0.67126-2.2656 1.0918-0.49892 0.60117-0.35406 0.8676 0.67969 1.25v0.002c4.5026 1.6655 8.6474-4.1189 5.416-7.5586-1.4096-1.5003-3.0451-1.6277-5.8516-0.45508-3.1386 1.3114-4.2078 1.1253-3.998-0.69727 0.13486-1.171 0.6061-1.6757 1.9902-2.123 3.656-1.1817 3.8424-2.707 0.33008-2.707zm113.14 35.91-16.424 0.16211c-16.021 0.15938-16.464 0.19469-18.117 1.418l-1.6953 1.2539-2.6211-1.3926c-2.6144-1.3896-2.6646-1.3945-18.172-1.3945h-15.549v24.006 24.008h15.602c15.377 0 15.622 0.0168 17.062 1.2559 0.98914 0.85084 1.564 2.0235 1.7793 3.6289l0.31836 2.373h-19.613-19.615v-23.449-23.449h-1.6758-1.6738v25.125 25.125h43.826 43.826v-25.125-25.123h-1.6738-1.6758v23.449 23.447h-19.279c-21.334 0-20.493 0.15784-19.252-3.6035 1.1999-3.6348 1.2981-3.6543 18.836-3.6543h15.787v-24.031-24.029zm-103.25 108.73-1.1465 1.4551c-0.63001 0.80103-2.6466 3.254-4.4824 5.4512-1.8358 2.1973-3.3379 4.177-3.3379 4.3984 0 0.41822 2.7352 2.6218 4.7207 3.8027 0.6271 0.37297 2.2119 0.68656 3.5215 0.69726 4.809 0.04 8.3116-5.5843 6.1016-9.7988-0.4691-0.89452-1.871-2.6117-3.1152-3.8164l-2.2617-2.1894zm132.78 0.36718c-0.33694 0.0422-0.5777 0.22809-0.88672 0.53711-0.97988 0.97988-1.3216-0.0488 3.7344 11.246 1.5825 3.5353 1.8074 3.7902 2.6191 2.9785 0.70886-0.70878 0.77241-1.2219 0.31054-2.5469-0.52997-1.5204-0.40324-1.8311 1.5098-3.6992 1.9006-1.8558 2.2303-1.9863 3.6738-1.4375 1.2519 0.47598 1.7596 0.43177 2.4062-0.21485 0.86831-0.86831 1.165-0.69992-10.115-5.7676-1.86-0.83562-2.6904-1.166-3.252-1.0957zm-131.98 3.7344c1.1742 0 3.0801 2.5486 3.0801 4.1191 0 2.1285-0.86399 3.5369-2.7793 4.5273-2.1253 1.099-2.7193 1.0585-4.9121-0.3457-2.0385-1.3054-2.179-0.85538 1.7734-5.6504 1.2022-1.4586 2.4789-2.6504 2.8379-2.6504zm134.52 0.0879c0.41033 0.0292 1.1441 0.30464 2.2754 0.77734l2.0879 0.87305-1.2793 1.3613c-0.70332 0.74864-1.3554 1.3613-1.4492 1.3613s-0.68197-1.0061-1.3086-2.2344c-0.79144-1.5513-1.01-2.1874-0.32617-2.1387zm-13.428 5.498c-2.0341 0.396-1.9626 1.024 0.54883 4.7676 1.4091 2.1004 2.4658 3.915 2.3477 4.0332-0.11816 0.11815-2.2911-0.68376-4.8281-1.7832-4.9412-2.1413-6.0659-2.3598-7.0586-1.3672-0.47124 0.47124 0.35907 2.1081 3.252 6.4199 2.1358 3.1833 4.0968 5.7891 4.3594 5.7891 0.26261 0 0.75174-0.32971 1.0859-0.73242 0.45945-0.55353-0.002-1.6392-1.8867-4.4492-1.3714-2.044-2.4922-3.8406-2.4922-3.9922 0-0.15156 2.0721 0.62385 4.6055 1.7227 5.9331 2.5735 6.0999 2.6126 7.2598 1.7539 0.9008-0.66677 0.67191-1.1837-2.8652-6.4902-2.1141-3.1716-4.0615-5.7239-4.3281-5.6719zm-106.87 2.2285c-0.24275 0-2.0864 2.6889-4.0957 5.9746-2.8017 4.5815-3.5089 6.148-3.0352 6.7188 0.33974 0.40936 0.887 0.65418 1.2148 0.54492 0.3278-0.10927 2.1867-2.7759 4.1328-5.9258 2.8337-4.5864 3.4075-5.8849 2.8809-6.5195-0.36172-0.43584-0.85494-0.79297-1.0977-0.79297zm10.498 5.5215c-2.6986 0.2134-4.8738 2.735-3.582 5.7676 0.4268 1.002 1.4369 2.4294 2.2441 3.1738 1.7278 1.5933 1.8557 2.5876 0.43554 3.3477-1.1745 0.62863-3.4355-0.60984-3.4355-1.8809 0-0.62344-1.1244-1.4238-2-1.4238-0.12842 0-0.23243 0.72028-0.23243 1.5996 0 0.98294 0.56571 2.1653 1.4707 3.0703 2.0522 2.0521 5.2494 2.0517 6.8633 0 1.7183-2.1843 1.4467-3.8209-1.0859-6.5684-1.5141-1.6427-2.1233-2.7353-1.8809-3.3672 0.48657-1.268 2.9942-0.92448 3.7891 0.51953 0.74924 1.3612 1.4844 1.9346 2.498 1.9453 1.2437 0.0138 0.28434-3.4303-1.3574-4.875-1.1656-1.0257-2.5-1.4056-3.7266-1.3086zm78.781 2.1348c-0.227-0.0235-0.50297 0.041-0.86133 0.17774-1.192 0.45469-1.166 0.5653 1.6738 6.9121 2.0299 4.5368 3.1661 6.4521 3.8301 6.4551 1.7118 0.008 1.5862-0.93387-0.83203-6.2148-1.3158-2.8736-2.6319-5.7629-2.9258-6.4199-0.26343-0.58901-0.50644-0.87104-0.88476-0.91016zm-59.832 4.1797c-0.86111-0.0397-1.6598 0.19898-3.0684 0.77344-2.1447 0.87474-2.8693 1.5541-3.9219 3.6738-1.1242 2.2641-1.2144 2.888-0.6914 4.8301 0.71673 2.6619 1.9475 4.235 4.2148 5.3867 1.9855 1.0085 4.7138 1.1029 6.6328 0.22852 1.1616-0.52919 1.2806-0.79254 0.74609-1.6484-0.51-0.81652-1.0942-0.95516-2.9473-0.70117-2.918 0.39998-4.5749-0.46595-5.6035-2.9277-0.69137-1.6546-0.69137-2.1637 0-3.8184 1.3601-3.2552 5.0087-4.1507 7.8398-1.9238 1.4252 1.121 1.572 1.1365 2.4492 0.24414 0.87246-0.88745 0.84684-1.0184-0.37891-2.0234-0.72073-0.59096-2.2998-1.3719-3.5098-1.7344-0.70663-0.21172-1.245-0.33557-1.7617-0.35937zm44.068 1.2051c-0.0434-0.041-0.62002 0.13045-1.2813 0.38086l-1.2031 0.45507 1.3555 4.6445c0.74468 2.5542 1.6097 5.5868 1.9219 6.7383 0.31219 1.1515 0.74637 2.0946 0.96485 2.0996 0.21838 0.004 2.5945-0.66249 5.2812-1.4824 3.0471-0.92993 4.8848-1.7794 4.8848-2.2578 0-1.3052-1.3197-1.3692-4.9473-0.24023l-3.4902 1.0859-0.45898-1.209c-0.25215-0.66418-1.0184-3.2172-1.7031-5.6738-0.68472-2.4566-1.2808-4.5001-1.3242-4.541zm-28.82 2.0332c-1.3541 0-1.5166 0.7143-1.9473 8.5156l-0.33203 6h1.3301c1.2844 0 1.3411-0.18292 1.6895-5.4434 0.56973-8.6036 0.531-9.0723-0.74024-9.0723zm15.031 0.0488c-0.48699 0.006-1.0729 0.048-1.8144 0.11523-1.7996 0.16318-3.381 0.40634-3.5137 0.53907-0.13275 0.13286 0.0475 3.3795 0.40039 7.2148 0.64081 6.9644 0.64449 6.9719 2.0098 6.7109 1.2178-0.23279 1.3281-0.4655 1.0156-2.1309-0.34328-1.8296-0.30257-1.8763 1.9004-2.2285 4.9811-0.79659 6.8402-5.8747 3.2559-8.8906-1.2217-1.0279-1.7929-1.3474-3.2539-1.3301zm-1.2422 2.8027c0.24726 0.007 0.52848 0.0256 0.84961 0.0488 2.1661 0.15677 2.3894 0.31451 2.5606 1.8184 0.12472 1.096-0.14469 1.8904-0.80469 2.373-1.8212 1.3317-3.394 0.90712-3.7793-1.0195-0.56132-2.8066-0.5569-3.2725 1.1738-3.2207z"/>
  <path fill="#d09b2c" d="m146.53 10.719c-6.5563 0.01431-11.922 5.8129-10.965 11.852 1.0967 6.9186 8.5855 10.733 15.188 7.7344 1.2639-0.57396 3.0226-1.9933 3.9082-3.1543 1.4016-1.8376 1.6094-2.5917 1.6094-5.8242 0-3.0388-0.2543-4.0877-1.3965-5.7754-1.5155-2.2391-6.0009-4.8371-8.3438-4.832zm-0.37304 4.4844c2.1156-0.03961 3.9598 1.1483 5.1426 3.4355 1.9349 3.7416-0.998 8.2715-5.3555 8.2715-1.6536 0-2.5426-0.39395-3.8652-1.7168-1.3441-1.3441-1.7188-2.203-1.7188-3.9453 0-2.8075 0.71648-4.1511 2.7812-5.2188 1.037-0.53628 2.054-0.80817 3.0156-0.82617zm48.281 0.08789c-1.1728-0.006-2.2083 0.33641-3.9648 1.2031-7.9486 3.9218-8.0308 14.149-0.14843 18.449 2.0145 1.099 8.5844 0.99596 9.9726-0.15625 0.81599-0.67721 0.7848-0.88731-0.34961-2.3066-1.1031-1.3801-1.5195-1.5264-3.582-1.2637-1.2833 0.16349-2.9861 0.13412-3.7852-0.06641-1.6347-0.41028-3.6472-3.3032-3.6504-5.248-0.003-2.2063 1.641-4.6213 3.7442-5.5 2.4146-1.0088 4.3866-0.61108 6.3828 1.2871 1.4232 1.3533 1.535 1.3705 3.2109 0.50391 1.9889-1.0285 2.0596-1.2756 0.86133-2.9863-1.1174-1.5953-4.5225-3.334-7.4414-3.8008-0.45316-0.07246-0.85906-0.11325-1.25-0.11523zm-73.566 1.7773c-1.1359-0.0023-2.4892 0.28411-4.9277 0.93945-2.5616 0.68838-4.7885 1.4645-4.9492 1.7246-0.23148 0.37456 3.3713 14.431 4.5371 17.701 0.14819 0.41569 0.65126 0.60923 1.1191 0.42969 0.46789-0.17955 2.4131-0.73039 4.3223-1.2227 4.2648-1.0995 6.8948-3.0201 8.2656-6.0391 1.3173-2.9007 1.3206-5.0404 0.01-7.9258-1.2496-2.7513-3.338-4.4898-6.3789-5.3086-0.71244-0.19184-1.3165-0.29746-1.998-0.29883zm-0.0469 3.916c0.29614 0.0136 0.57053 0.04865 0.8125 0.10938 0.78009 0.19579 2.0458 1.1005 2.8125 2.0117 2.5473 3.0274 1.4827 7.0334-2.2891 8.6094-3.1307 1.3081-3.3576 1.124-4.6797-3.7754-0.67573-2.5042-1.3527-4.8754-1.5039-5.2695-0.31096-0.81035 2.7746-1.7807 4.8477-1.6855zm96.904 3.2793c-1.9838 0.05839-3.9612 0.73691-5.7695 2.0469-2.9727 2.1535-4.2397 4.972-3.9277 8.7344 0.63061 7.6041 8.3812 11.927 15.344 8.5566 6.1594-2.9816 7.0642-11.79 1.6953-16.504-2.2291-1.9572-4.7912-2.9091-7.3418-2.834zm-122.6 1.4434c-0.35583-0.02327-0.67825 0.08855-1.0957 0.24609-1.1155 0.42107-1.6949 1.0267-1.6992 1.7734-0.01165 2.0022 1.3246 19.836 1.4863 19.836 0.08582 0 1.0685-0.43402 2.1816-0.96484 1.9004-0.90626 2.003-1.0879 1.6973-3-0.32452-2.0295-0.31395-2.0422 2.8809-3.4414l3.2051-1.4043 1.5352 1.4395c1.5243 1.429 1.5474 1.4314 3.5703 0.4668 1.1201-0.53414 1.8124-1.172 1.5371-1.418-0.27525-0.24601-3.695-3.4809-7.5996-7.1875-5.2494-4.9831-6.6317-6.2759-7.6992-6.3457zm123.11 3.1582c2.2356 0 2.8337 0.25682 4.2324 1.8223 1.8442 2.064 2.1002 4.2988 0.78515 6.8418-1.0767 2.082-2.4119 2.7812-5.3164 2.7812-1.8806 0-2.6336-0.33244-3.9434-1.7344-2.2402-2.398-2.2379-5.3749 0.008-7.8887 1.3987-1.5654 1.9988-1.8223 4.2344-1.8223zm-121.43 3.4199 1.6992 1.627c1.5694 1.5036 1.6273 1.6835 0.73242 2.3379-1.2698 0.92849-1.6838 0.89461-2.0938-0.17383-0.18638-0.48571-0.33789-1.5379-0.33789-2.3379v-1.4531zm-18.621 4.9492c-1.9167 0-3.1829 0.56122-6.9199 3.0703-2.5153 1.6888-4.5814 3.2785-4.5918 3.5312-0.02239 0.54508 10.499 15.451 10.906 15.451 0.15403 0 0.8994-0.40446 1.6562-0.90039 1.677-1.0988 1.7018-1.5395 0.20703-3.6387-2.2172-3.1139-0.33605-4.145 4.0098-2.1992 2.3838 1.0672 2.4169 1.0659 3.9688-0.03906 0.86074-0.6129 1.5645-1.3228 1.5645-1.5781 0-0.25531-1.2129-0.90056-2.6953-1.4336l-2.6953-0.96875 0.84766-2.3574c0.7438-2.0684 0.74917-2.6152 0.04297-4.4707-1.0874-2.8569-3.3576-4.4668-6.3008-4.4668zm162.94 0.2793c-0.58101 0-11.311 13.421-11.604 14.514-0.0687 0.25643 2.4992 2.5129 5.707 5.0156l5.834 4.5508 0.99414-1.293c0.54698-0.71094 0.9917-1.5425 0.98828-1.8496-0.003-0.30707-1.7573-1.8926-3.8965-3.5234-2.1392-1.6309-3.8799-3.1399-3.8691-3.3516 0.0107-0.21152 2.007-2.8938 4.4375-5.9609l4.4199-5.5762-1.1875-1.2617c-0.65235-0.6944-1.4728-1.2637-1.8242-1.2637zm-163.09 3.98c2.9417-0.21249 3.77 2.7839 0.01172 5.8789l-2.297 1.893-1.371-1.826c-2.227-2.9666-2.2264-3.0064 0.10156-4.5469 1.3584-0.89896 2.5741-1.3276 3.5547-1.3984zm-19.422 11.711c-4.7439-0.07988-9.158 3.1712-10.324 8.375-1.8793 8.3861 6.2833 14.777 14.252 11.158 7.5527-3.4299 8.0471-14.468 0.81836-18.291-1.5471-0.81812-3.1648-1.2156-4.7461-1.2422zm201.65 0.02148-6.9121 6.2344c-3.8013 3.4294-6.9121 6.3961-6.9121 6.5918 0 0.19573 2.1629 2.7721 4.8066 5.7246l4.8086 5.3672 1.6133-1.1484c0.88753-0.63197 1.6133-1.2639 1.6133-1.4043 0-0.14038-1.5071-1.877-3.3496-3.8574-1.8424-1.9804-3.3496-3.8175-3.3496-4.084 0-0.26647 2.4008-2.6931 5.3359-5.3926l5.3379-4.9082-1.4961-1.5625-1.4961-1.5605zm-201.98 4.393c1.9342 0 4.3962 1.5765 5.3535 3.4277 2.9317 5.6693-4.769 11.192-9.2949 6.666-3.5701-3.5701-1.0231-10.094 3.9414-10.094zm218.76 14.84c-0.64938 0.01543-4.2699 2.0099-8.5234 4.7129-7.747 4.923-8.1112 5.2355-7.4062 6.3496 0.4078 0.64444 2.2038 3.4955 3.9902 6.3359 1.7864 2.8403 3.4105 5.166 3.6094 5.166 0.19883 0 0.91909-0.39114 1.6016-0.86914 0.68247-0.47802 1.2422-1.0988 1.2422-1.3789 0-0.28008-1.1319-2.2566-2.5137-4.3926s-2.5117-4.1138-2.5117-4.3945c0-0.68404 2.996-2.0234 3.207-1.4336 0.0912 0.25496 0.92046 1.6676 1.8437 3.1387l1.6797 2.6738 1.6602-0.98047c0.91289-0.53925 1.6535-1.1132 1.6465-1.2773-0.008-0.1641-0.86626-1.6708-1.9102-3.3477l-1.8984-3.0488 1.4922-0.92188 1.4922-0.92187 2.791 4.3867c1.5354 2.4132 3.0425 4.3826 3.3496 4.377 0.30707-0.0057 1.118-0.44406 1.8027-0.97461l1.2461-0.96484-3.668-5.8613c-2.0171-3.2242-3.8769-6.0817-4.1328-6.3496-0.0162-0.01695-0.0466-0.02447-0.0899-0.02344zm-241.91 6.686c-0.3688 0.0023-0.72636 0.40649-1.4062 1.3613-0.68096 0.95631-1.0687 1.9123-0.86328 2.125 0.54304 0.56198 15.049 10.598 15.379 10.641 0.15352 0.01971 2.1542-2.7339 4.4453-6.1191 3.4152-5.0462 4.0182-6.2539 3.3496-6.6992-2.5634-1.707-2.5022-1.7376-5.582 2.8242l-2.9707 4.4004-5.3438-3.6797c-2.94-2.025-5.757-4.03-6.261-4.456-0.302-0.255-0.527-0.4-0.748-0.398zm-2.8984 15.158c-5.6843-0.30462-10.922 4.1811-10.98 10.461-0.07161 7.7146 7.3998 12.506 14.484 9.2891 7.6786-3.487 7.9566-15.174 0.44531-18.738-1.301-0.61736-2.6375-0.94142-3.9492-1.0117zm252.8 1.1484c-10.198 0-13.942 13.941-5.1191 19.061 2.3588 1.3684 4.6022 1.4144 7.3633 0.15039l2.0449-0.9375-1.666-4.1856c-0.91643-2.303-1.8851-4.4129-2.1524-4.6875-0.40988-0.42117-3.8984 0.54542-3.8984 1.0801 0 0.0908 0.50305 1.3368 1.1172 2.7695 1.3887 3.2395 1.3871 3.2491-0.14062 2.4668-2.1412-1.0965-3.1841-2.8725-3.1973-5.4414-0.0173-3.3704 2.2534-5.6797 5.584-5.6797 1.9239 0 2.675 0.34483 4.2988 1.9688 1.8575 1.8575 1.9494 2.119 1.6133 4.6524-0.33117 2.4966-0.25663 2.7304 1.0723 3.3359 2.0984 0.95609 2.3414 0.84937 3.0703-1.3594 2.0566-6.2314-3.2142-13.193-9.9902-13.193zm-253.46 3.483c5.806 0 7.7695 7.8071 2.7148 10.793-1.9247 1.1369-3.7031 1.1536-5.7246 0.0566-5.3147-2.8842-3.1049-10.85 3.0098-10.85zm-13.136 21.068l-2.0938 2.2441c-3.4979 3.7499-4.0825 8.6677-1.5254 12.828 2.7825 4.5271 8.5936 6.1653 13.314 3.7539 1.6382-0.83682 4.0477-3.3373 5.002-5.1895 0.98553-1.913 0.87672-6.8294-0.19727-8.9062l-0.92188-1.7852-1.9395 1.2539c-1.3207 0.85375-1.8193 1.5192-1.5664 2.0898 0.20407 0.4606 0.47769 1.8989 0.60938 3.1973 0.20759 2.0466 0.01568 2.5859-1.4473 4.0488-1.3388 1.3388-2.169 1.6875-4.0195 1.6875-1.9242 0-2.6754-0.34539-4.3008-1.9707-1.7749-1.7749-1.9396-2.1954-1.6641-4.25 0.18304-1.3647 0.87353-2.8716 1.7207-3.7559l1.416-1.4785-1.1934-1.8828-1.1934-1.8848zm106.29 0.15039v20.658 20.658l14.098 0.0391c7.7535 0.0216 14.599 0.25562 15.213 0.51953 0.61413 0.26389 1.3048 0.49797 1.5352 0.51954 0.23029 0.0216 0.41992-8.857 0.41992-19.73v-0.002-19.771l-1.7188-1.4453-1.7168-1.4453h-13.916-13.914zm52.451 0c-15.325 0-16.26 0.20455-17.25 3.7695-0.34815 1.2536-0.58213 9.4517-0.58398 20.443l-0.004 18.35 1.2559-0.46289c0.69091-0.25389 7.7254-0.54168 15.633-0.64062l14.377-0.17969v-20.639-20.641h-13.428zm122.56 0.68164c-0.16218-0.21967-18.098 3.5572-18.42 3.8789-0.14712 0.14709 0.39398 3.5732 1.2031 7.6133l1.4726 7.3457 1.4551-0.3418c0.80074-0.18807 1.6624-0.53046 1.916-0.75977h0.002c0.25362-0.22931 0.0259-2.6079-0.50586-5.2852-0.82489-4.1537-0.8513-4.9394-0.18164-5.3633 1.8117-1.147 2.635-0.56295 3.25 2.3047 0.33251 1.5504 0.60547 3.1834 0.60547 3.6289 0 0.87987 0.67088 0.98903 2.7168 0.44141 1.2039-0.32226 1.2899-0.56842 0.98632-2.7832-0.18318-1.3365-0.48143-3.0263-0.66406-3.7539-0.28052-1.1176-0.0885-1.369 1.2441-1.625 0.86762-0.16664 1.641-0.24222 1.7188-0.16602 0.0777 0.0762 0.59893 2.3782 1.1562 5.1152l1.0117 4.9766 1.8184-0.0859c0.99914-0.0477 1.9009-0.17344 2.0039-0.2793 0.16897-0.17366-2.5189-14.495-2.7891-14.861zm-98.3 157.02c-1.0236-0.0931-4.1328 0.69623-4.1328 1.1426 0 0.11019 0.75463 2.1565 1.6758 4.5488 0.92121 2.3924 1.6738 4.5018 1.6738 4.6875 0 0.34128-4.0135 1.7226-4.2676 1.4688-0.0754-0.0754 0.0863-1.127 0.35937-2.3379 0.27313-1.211 0.4031-2.2981 0.28711-2.4141-0.11601-0.11601-1.086 0.0791-2.1543 0.43164-1.7078 0.56362-2.0211 0.97115-2.5996 3.3828-0.66883 2.7879-0.0117 6.6953 1.127 6.6953 0.26495 0 2.2599-0.64242 4.4316-1.4258 3.7604-1.3565 5.0508-1.407 5.0508-0.19922 0 0.70343 1.5483 4.416 1.8418 4.416 0.12337 0 1.0154-0.27618 1.9824-0.61328 1.9869-0.69262 2.1238-1.3421 0.89649-4.2793-0.79634-1.906-0.78933-2.1191 0.10546-2.7734 0.53317-0.38987 1.2753-0.70899 1.6484-0.70899 0.51745 0 0.53547-0.46478 0.0781-1.9551-0.61752-2.012-1.4027-2.3584-3.1856-1.4043-0.91014 0.4871-1.2014 0.0609-2.5664-3.7676-0.84672-2.3749-1.7279-4.5334-1.957-4.7969-0.046-0.0529-0.14869-0.0844-0.29492-0.0977zm-85.135 0.29687c-0.73615 0-9.4414 4.4068-9.4414 4.7793 0 0.79535 1.77 3.5957 2.2734 3.5957 0.31443 0 1.3147-0.38308 2.2207-0.85156 0.90595-0.46849 1.6418-0.6581 1.6367-0.41992-0.005 0.23819-0.86658 3.1497-1.9141 6.4688l-1.9043 6.0352 1.2168 0.49023c2.8538 1.1501 2.9799 0.97687 5.6816-7.6758 1.4142-4.5293 2.7991-8.9345 3.0781-9.791 0.44738-1.3728 0.34129-1.6208-0.90234-2.0938-0.7759-0.29499-1.6514-0.53711-1.9453-0.53711zm25.229 4.4844c-2.4717-0.0887-4.9382 0.88052-5.9434 2.8242-1.0682 2.0658-1.0302 4.9708 0.0859 6.5644 0.84007 1.1994 0.81942 1.3622-0.30274 2.5566-2.7036 2.8779-1.7376 7.9764 1.8145 9.582 2.1495 0.97163 5.9846 0.7106 7.8887-0.53711 0.78127-0.51189 1.6804-1.9088 2.0723-3.2168 0.61223-2.0434 0.56741-2.5449-0.39453-4.3281l-1.0898-2.0176 1.2578-1.2363c1.8949-1.8649 1.7502-5.7283-0.29883-8.0215-1.2433-1.3915-3.1674-2.1009-5.0898-2.1699zm33.93 1.1621c-0.99041 0.0231-2.5364 0.21293-5.0039 0.51953-7.4199 0.92201-7.209 0.8303-7.209 3.1289v2.0156l4.4668-0.39062c2.4566-0.21429 4.4659-0.3088 4.4648-0.21094-0.001 0.0979-1.3819 3.8209-3.0684 8.2734s-3.0671 8.2876-3.0684 8.5215c-0.002 0.32064 4.3056-0.007 4.8398-0.36719 0.0529-0.0357 1.6334-4.1864 3.5137-9.2226 2.5188-6.7468 3.3273-9.5745 3.0703-10.744-0.24947-1.1358-0.35518-1.562-2.0059-1.5234zm-33.992 4.0469c0.99788-0.0177 1.9955 0.33872 2.1387 1.082 0.21812 1.1326-0.81338 2.625-1.8144 2.625-0.36431 0-1.1154-0.33025-1.668-0.73438v-0.006c-0.55323-0.39844-0.91182-1.2109-0.79688-1.8086 0.14412-0.74839 1.1428-1.1405 2.1406-1.1582zm-0.95703 8.3203c0.98543 0.056 2.0154 0.55344 2.3066 1.3125 0.74639 1.945-2.4454 3.3552-4.0234 1.7773-0.90031-0.90031-0.84404-1.8403 0.16016-2.6738 0.39055-0.32412 0.96538-0.44964 1.5566-0.41601z"/>
 </g>
</svg>
